# xmcd CD database file
#
# Track frame offsets:
#	150
#	25907
#	50635
#	73830
#	100330
#	129935
#	151065
#	176242
#	204102
#	224680
#	254257
#	280057
#
# Disc length: 3989 seconds
#
# Revision: 1
# Processed by: cddbd v1.4PL0 Copyright (c) Steve Scherf et al.
# Submitted via: CDex 1.50beta8
#
DISCID=ae0f930c
DTITLE=Joakim Milder - Consensus
DYEAR=1992
DGENRE=Jazz
TTITLE0=Some day my prince will come (Frank Churchill-Larry Morey)
TTITLE1=Played twice (Theloneous Monk)
TTITLE2=Darn that dream (Jimmy van Heusen)
TTITLE3=My funny Valentine (Richard Rogers-Lorenz Hart)
TTITLE4=Soon (George Gershwin)
TTITLE5=Canto Triste (Edu Lobo)
TTITLE6=I should care (Sammy Cahn-Axel Stordahl)
TTITLE7=The masquerade is over (Allie Wrubel-Herbert Magidson)
TTITLE8=Some over time (Comden-Green-Bernstein)
TTITLE9=Alone together (Arthur Schwartz-Howard Dietz)
TTITLE10=Body and soul (Johnny Greene-Edward Heyman-Robert Sour-Frank Eyton
TTITLE11=Here's that rainy day (Jimmy van Heusen)
EXTD=YEAR: 1992
EXTT0=
EXTT1=
EXTT2=
EXTT3=
EXTT4=
EXTT5=
EXTT6=
EXTT7=
EXTT8=
EXTT9=
EXTT10=
EXTT11=
PLAYORDER=
